<svg xmlns="http://www.w3.org/2000/svg" viewBox="0 0 120 120" fill="none">
  <!-- Gentle cloud silhouette -->
  <path d="M32 64c-11 0-20-8.1-20-18.3 0-9.1 6.5-17 15.6-18.4C30 18.6 39 12 49.5 12 61 12 71 20 73.3 31.3 84.8 32 94 41.2 94 52.4 94 63.8 84.8 73 73 73H32Z" fill="#f4fbff" stroke="#d2ecfa" stroke-width="3" stroke-linejoin="round" opacity="0.9"/>
  <!-- Fog bands -->
  <g stroke="#c9dceb" stroke-width="5" stroke-linecap="round" opacity="0.9">
    <path d="M14 78c8 0 13-4 21-4s13 4 21 4 13-4 21-4 13 4 21 4"/>
    <path d="M10 92c9 0 14.5-4 22.5-4S47 92 55 92s14.5-4 22.5-4S92 92 100 92"/>
    <path d="M18 106c7 0 12-4 19-4s12 4 19 4 12-4 19-4 12 4 19 4"/>
  </g>
</svg>
