<svg xmlns="http://www.w3.org/2000/svg" viewBox="0 0 64 64" fill="none">
  <!-- Fog lines with wave effect -->
  <g stroke="#B8C5D6" stroke-width="3" stroke-linecap="round">
    <path d="M 10 20 Q 16 18 22 20 T 34 20 Q 40 18 46 20 T 58 20"/>
    <path d="M 6 28 Q 12 26 18 28 T 30 28 Q 36 26 42 28 T 54 28"/>
    <path d="M 10 36 Q 16 34 22 36 T 34 36 Q 40 34 46 36 T 58 36"/>
    <path d="M 6 44 Q 12 42 18 44 T 30 44 Q 36 42 42 44 T 54 44"/>
    <path d="M 10 52 Q 16 50 22 52 T 34 52 Q 40 50 46 52 T 58 52"/>
  </g>
</svg>
