<svg xmlns="http://www.w3.org/2000/svg" viewBox="0 0 64 64" fill="none">
  <!-- Cloud -->
  <g fill="#B8C5D6">
    <ellipse cx="24" cy="18" rx="10" ry="8"/>
    <ellipse cx="34" cy="16" rx="9" ry="7"/>
    <ellipse cx="42" cy="18" rx="8" ry="6"/>
    <rect x="16" y="18" width="32" height="8" rx="2"/>
  </g>
  <!-- Snowflakes -->
  <g stroke="#E0F2FE" stroke-width="2" stroke-linecap="round" fill="#E0F2FE">
    <!-- Snowflake 1 -->
    <g transform="translate(20, 36)">
      <line x1="0" y1="-4" x2="0" y2="4"/>
      <line x1="-4" y1="0" x2="4" y2="0"/>
      <line x1="-3" y1="-3" x2="3" y2="3"/>
      <line x1="-3" y1="3" x2="3" y2="-3"/>
    </g>
    <!-- Snowflake 2 -->
    <g transform="translate(32, 34)">
      <line x1="0" y1="-4" x2="0" y2="4"/>
      <line x1="-4" y1="0" x2="4" y2="0"/>
      <line x1="-3" y1="-3" x2="3" y2="3"/>
      <line x1="-3" y1="3" x2="3" y2="-3"/>
    </g>
    <!-- Snowflake 3 -->
    <g transform="translate(44, 36)">
      <line x1="0" y1="-4" x2="0" y2="4"/>
      <line x1="-4" y1="0" x2="4" y2="0"/>
      <line x1="-3" y1="-3" x2="3" y2="3"/>
      <line x1="-3" y1="3" x2="3" y2="-3"/>
    </g>
    <!-- Snowflake 4 -->
    <g transform="translate(26, 48)">
      <line x1="0" y1="-4" x2="0" y2="4"/>
      <line x1="-4" y1="0" x2="4" y2="0"/>
      <line x1="-3" y1="-3" x2="3" y2="3"/>
      <line x1="-3" y1="3" x2="3" y2="-3"/>
    </g>
    <!-- Snowflake 5 -->
    <g transform="translate(38, 50)">
      <line x1="0" y1="-4" x2="0" y2="4"/>
      <line x1="-4" y1="0" x2="4" y2="0"/>
      <line x1="-3" y1="-3" x2="3" y2="3"/>
      <line x1="-3" y1="3" x2="3" y2="-3"/>
    </g>
  </g>
</svg>
