<svg xmlns="http://www.w3.org/2000/svg" viewBox="0 0 64 64" fill="none">
  <!-- Larger snow cloud -->
  <g fill="#B8C5D6">
    <ellipse cx="22" cy="16" rx="11" ry="9"/>
    <ellipse cx="34" cy="14" rx="10" ry="8"/>
    <ellipse cx="44" cy="16" rx="9" ry="7"/>
    <rect x="14" y="16" width="36" height="10" rx="2"/>
  </g>
  <!-- Heavy snowflakes (larger, more dense) -->
  <g stroke="#E0F2FE" stroke-width="2.5" stroke-linecap="round" fill="#E0F2FE">
    <!-- Snowflake 1 -->
    <g transform="translate(18, 34)">
      <line x1="0" y1="-5" x2="0" y2="5"/>
      <line x1="-5" y1="0" x2="5" y2="0"/>
      <line x1="-4" y1="-4" x2="4" y2="4"/>
      <line x1="-4" y1="4" x2="4" y2="-4"/>
    </g>
    <!-- Snowflake 2 -->
    <g transform="translate(28, 32)">
      <line x1="0" y1="-5" x2="0" y2="5"/>
      <line x1="-5" y1="0" x2="5" y2="0"/>
      <line x1="-4" y1="-4" x2="4" y2="4"/>
      <line x1="-4" y1="4" x2="4" y2="-4"/>
    </g>
    <!-- Snowflake 3 -->
    <g transform="translate(38, 34)">
      <line x1="0" y1="-5" x2="0" y2="5"/>
      <line x1="-5" y1="0" x2="5" y2="0"/>
      <line x1="-4" y1="-4" x2="4" y2="4"/>
      <line x1="-4" y1="4" x2="4" y2="-4"/>
    </g>
    <!-- Snowflake 4 -->
    <g transform="translate(48, 32)">
      <line x1="0" y1="-5" x2="0" y2="5"/>
      <line x1="-5" y1="0" x2="5" y2="0"/>
      <line x1="-4" y1="-4" x2="4" y2="4"/>
      <line x1="-4" y1="4" x2="4" y2="-4"/>
    </g>
    <!-- Snowflake 5 -->
    <g transform="translate(23, 46)">
      <line x1="0" y1="-5" x2="0" y2="5"/>
      <line x1="-5" y1="0" x2="5" y2="0"/>
      <line x1="-4" y1="-4" x2="4" y2="4"/>
      <line x1="-4" y1="4" x2="4" y2="-4"/>
    </g>
    <!-- Snowflake 6 -->
    <g transform="translate(33, 48)">
      <line x1="0" y1="-5" x2="0" y2="5"/>
      <line x1="-5" y1="0" x2="5" y2="0"/>
      <line x1="-4" y1="-4" x2="4" y2="4"/>
      <line x1="-4" y1="4" x2="4" y2="-4"/>
    </g>
    <!-- Snowflake 7 -->
    <g transform="translate(43, 46)">
      <line x1="0" y1="-5" x2="0" y2="5"/>
      <line x1="-5" y1="0" x2="5" y2="0"/>
      <line x1="-4" y1="-4" x2="4" y2="4"/>
      <line x1="-4" y1="4" x2="4" y2="-4"/>
    </g>
  </g>
</svg>
