<svg xmlns="http://www.w3.org/2000/svg" viewBox="0 0 120 120" fill="none">
  <!-- Big cloud -->
  <path d="M30 64c-11.5 0-21-9-21-20 0-10.4 7-19 16.4-20.6C28 13.6 38.6 7 50.6 7 63.8 7 74.6 17 76.7 29.8 89 30.5 99 40.8 99 53.3 99 66 88.2 76 75.4 76H30Z" fill="#f4fbff" stroke="#d2ecfa" stroke-width="3" stroke-linejoin="round"/>
  <!-- Snow showers -->
  <g stroke="#cfe6ff" stroke-width="4" stroke-linecap="round" stroke-linejoin="round" fill="#dff1ff">
    <g transform="translate(26 84)">
      <circle r="3"/>
      <line x1="0" y1="-9" x2="0" y2="9"/>
      <line x1="-8" y1="0" x2="8" y2="0"/>
    </g>
    <g transform="translate(44 90)">
      <circle r="3"/>
      <line x1="0" y1="-9" x2="0" y2="9"/>
      <line x1="-8" y1="0" x2="8" y2="0"/>
    </g>
    <g transform="translate(62 82)">
      <circle r="3"/>
      <line x1="0" y1="-9" x2="0" y2="9"/>
      <line x1="-8" y1="0" x2="8" y2="0"/>
    </g>
    <g transform="translate(80 90)">
      <circle r="3"/>
      <line x1="0" y1="-9" x2="0" y2="9"/>
      <line x1="-8" y1="0" x2="8" y2="0"/>
    </g>
    <g transform="translate(52 104)">
      <circle r="3"/>
      <line x1="0" y1="-9" x2="0" y2="9"/>
      <line x1="-8" y1="0" x2="8" y2="0"/>
    </g>
  </g>
</svg>
