<svg xmlns="http://www.w3.org/2000/svg" viewBox="0 0 120 120" fill="none">
  <!-- Puffy cloud -->
  <path d="M30 66c-11.5 0-21-9-21-20 0-10.6 7-19.3 16.7-20.7C28 15 38.6 8.5 50.5 8.5c13 0 23.9 9.7 25.8 22.4C88.5 32 99 42.5 99 55c0 12.8-10.8 23-23.7 23H30Z" fill="#f4fbff" stroke="#d2ecfa" stroke-width="3" stroke-linejoin="round"/>
  <!-- Snowflakes -->
  <g stroke="#cfe6ff" stroke-width="4" stroke-linecap="round" stroke-linejoin="round" fill="#dff1ff">
    <g transform="translate(32 82)">
      <circle r="3"/>
      <line x1="0" y1="-9" x2="0" y2="9"/>
      <line x1="-9" y1="0" x2="9" y2="0"/>
      <line x1="-6" y1="-6" x2="6" y2="6"/>
      <line x1="-6" y1="6" x2="6" y2="-6"/>
    </g>
    <g transform="translate(54 88)">
      <circle r="3"/>
      <line x1="0" y1="-9" x2="0" y2="9"/>
      <line x1="-9" y1="0" x2="9" y2="0"/>
      <line x1="-6" y1="-6" x2="6" y2="6"/>
      <line x1="-6" y1="6" x2="6" y2="-6"/>
    </g>
    <g transform="translate(76 82)">
      <circle r="3"/>
      <line x1="0" y1="-9" x2="0" y2="9"/>
      <line x1="-9" y1="0" x2="9" y2="0"/>
      <line x1="-6" y1="-6" x2="6" y2="6"/>
      <line x1="-6" y1="6" x2="6" y2="-6"/>
    </g>
  </g>
</svg>
